<?xml version="1.0" encoding="UTF-8"?>
<svg id="Layer_1" xmlns="http://www.w3.org/2000/svg" viewBox="0 0 316.51 317.59">
  <path d="M142.96,141.12c8.85-2.86,16.82-3.66,25.06-2.62,6.97.87,11.34,3.87,12.94,10.59,3.11,13.06,2.35,25.91-3.99,37.89-13.32,25.18-34.23,38.63-62.89,39.27-13.95.31-26.71-3.82-38.38-11.45-8.68-5.68-16.11-12.73-22.4-20.9-7.18-9.33-12.59-19.73-15.6-31.11-3.37-12.75-4.68-25.69-2.44-38.94,1.89-11.18,3.95-22.25,8.18-32.83,5.75-14.39,13.91-27.23,24.12-38.87,3.46-3.95,5.77-8.89,5.28-14.27-.68-7.54-4.32-13.46-11.66-16.37-8-3.17-15.62-1.91-21.63,4.06-11.68,11.62-20.16,25.54-26.67,40.59C5.76,82.61,1.45,99.78.34,117.75c-1.17,19.04.63,37.75,6.04,56.02,3.97,13.39,9.88,25.91,17.95,37.41,8.24,11.74,18.25,21.63,30.13,29.59,10.32,6.91,21.45,12.05,33.47,15.5,11.69,3.36,23.59,5.05,35.61,4.99,15.68-.08,30.57-4.11,44.14-12.19,18.45-11,32.3-25.58,35.5-47.88,3.12-21.74-3.65-39.94-19.99-54.61-1.02-.92-1.74-2.17-2.6-3.27.21-.29.42-.57.64-.86.85.12,1.78.07,2.55.38,12.1,4.81,21.63,12.89,28.95,23.5,9.9,14.35,13.84,30.2,11.83,47.67-1.39,12.06-5.43,23.04-12.78,32.46-15.99,20.5-37.56,31.8-62.98,35.69-17.59,2.69-34.85.32-51.66-5.38-16.8-5.7-32.08-14.09-45.45-25.85-6.27-5.51-13.73-6.71-21.2-3.82-13.83,5.35-15.92,24.83-4.01,33.6,16.36,12.05,33.25,22.97,52.89,29.13,13.7,4.29,27.68,7.13,41.96,7.65,23.23.86,45.75-3.14,67.37-11.85,14.2-5.72,26.56-14.32,37.31-25.06,11.72-11.71,20.34-25.61,26.6-40.92,6.54-16,9.36-32.51,7.25-49.86-1.98-16.28-7.63-31.17-16.86-44.47-16.26-23.43-44.68-32.71-72-24.21-11.12,3.45-20.2,9.94-28.05,20.04ZM174.4,179.02c-1.5.31-1.96.36-2.38.5-10.9,3.79-22.04,4.44-33.07,1.26-16.62-4.81-28.93-15.49-37.98-29.99-8.35-13.38-11.39-28.13-10.09-43.74.74-8.88,3.38-17.38,7.49-25.26,4.91-9.42,11.98-17.14,20.09-24,16.08-13.6,34.58-21.3,55.54-22.89,21.01-1.59,40.77,3.41,59.65,12.25,11.28,5.28,21.6,12.09,30.87,20.46,4.27,3.86,9.1,5.88,15.08,5.72,13.56-.37,22.81-16.05,16.57-28.1-2.97-5.74-7.92-9.39-12.76-13.05-13.4-10.14-27.91-18.35-43.89-23.82C225.95,3.72,212.1.55,197.71.11c-14.44-.45-28.69.5-42.97,3.36-20.07,4.01-38.2,11.78-53.96,24.7-24.26,19.89-38.49,45.75-43.86,76.5-2.03,11.64-1.39,23.37,1.06,34.89,2.24,10.52,6.26,20.42,11.39,29.95,9.43,17.51,23.93,28.32,42.99,32.89,14.4,3.45,28.33,1.35,41.51-5.58,7.96-4.19,14.35-10.1,20.54-17.79ZM139.66,172.37c-.91-5.58-2.33-10.99-2.57-16.44-.64-14.23,4.21-26.94,12.62-38.15,16.21-21.61,38.05-30.53,64.76-27.16,15.19,1.92,27.81,9.45,38.71,19.78,14.42,13.67,23.78,30.32,27.58,49.91,3.99,20.63.68,40.67-5.73,60.26-5.22,15.95-13.63,30.23-24.87,42.77-4.77,5.32-6.59,11.72-4.74,18.45,2.11,7.65,7.21,12.88,15.48,14.24,7.4,1.22,13.55-1.23,18.32-6.83,9.91-11.63,18.01-24.41,24.16-38.46,6.72-15.36,10.98-31.4,12.48-48.01,1.98-21.86-.5-43.39-7.02-64.38-4.42-14.22-11.39-27.12-20.77-38.68-9.62-11.86-21.18-21.43-34.5-28.93-13.18-7.43-27.09-12.66-42.16-14.46-19.04-2.28-36.99,1.57-54.25,9.61-11.13,5.18-20.92,12.09-27.84,22.27-13.54,19.9-15.86,41.23-6.33,63.47,3.64,8.48,9.77,15.17,16.67,20.73Z" fill="#fff"/>
  <path d="M142.96,141.12c7.85-10.09,16.93-16.58,28.05-20.04,27.32-8.49,55.74.79,72,24.21,9.23,13.3,14.88,28.2,16.86,44.47,2.11,17.35-.71,33.86-7.25,49.86-6.26,15.32-14.88,29.21-26.6,40.92-10.75,10.75-23.11,19.34-37.31,25.06-21.62,8.71-44.14,12.71-67.37,11.85-14.27-.53-28.25-3.36-41.96-7.65-19.64-6.15-36.53-17.08-52.89-29.13-11.91-8.77-9.82-28.25,4.01-33.6,7.46-2.89,14.93-1.69,21.2,3.82,13.37,11.75,28.64,20.15,45.45,25.85,16.81,5.7,34.06,8.07,51.66,5.38,25.42-3.89,46.99-15.19,62.98-35.69,7.35-9.42,11.4-20.4,12.78-32.46,2.01-17.47-1.93-33.32-11.83-47.67-7.32-10.61-16.86-18.69-28.95-23.5-.78-.31-1.7-.26-2.55-.38-.21.29-.42.57-.64.86.86,1.1,1.58,2.35,2.6,3.27,16.35,14.67,23.11,32.88,19.99,54.61-3.2,22.31-17.05,36.88-35.5,47.88-13.56,8.09-28.46,12.12-44.14,12.19-12.02.06-23.92-1.63-35.61-4.99-12.02-3.46-23.14-8.59-33.47-15.5-11.88-7.96-21.89-17.85-30.13-29.59-8.07-11.5-13.99-24.02-17.95-37.41C.97,155.5-.83,136.79.34,117.75c1.11-17.97,5.42-35.14,12.53-51.59,6.51-15.05,14.99-28.97,26.67-40.59,6.01-5.98,13.64-7.23,21.63-4.06,7.34,2.91,10.98,8.83,11.66,16.37.49,5.39-1.82,10.32-5.28,14.27-10.21,11.64-18.37,24.48-24.12,38.87-4.22,10.58-6.29,21.64-8.18,32.83-2.24,13.26-.93,26.2,2.44,38.94,3.01,11.38,8.42,21.78,15.6,31.11,6.29,8.17,13.72,15.22,22.4,20.9,11.67,7.64,24.43,11.77,38.38,11.45,28.66-.64,49.57-14.1,62.89-39.27,6.34-11.98,7.1-24.83,3.99-37.89-1.6-6.71-5.97-9.71-12.94-10.59-8.24-1.03-16.21-.24-25.06,2.62Z"/>
  <path d="M174.4,179.02c-6.19,7.69-12.58,13.6-20.54,17.79-13.18,6.94-27.1,9.03-41.51,5.58-19.06-4.57-33.56-15.38-42.99-32.89-5.13-9.53-9.15-19.43-11.39-29.95-2.45-11.51-3.09-23.25-1.06-34.89,5.37-30.75,19.6-56.6,43.86-76.5,15.76-12.92,33.89-20.69,53.96-24.7C169.02.61,183.27-.34,197.71.11c14.39.45,28.24,3.62,41.81,8.27,15.98,5.48,30.49,13.68,43.89,23.82,4.83,3.66,9.79,7.3,12.76,13.05,6.24,12.05-3.02,27.73-16.57,28.1-5.98.16-10.81-1.86-15.08-5.72-9.26-8.38-19.59-15.18-30.87-20.46-18.88-8.85-38.64-13.85-59.65-12.25-20.96,1.59-39.46,9.29-55.54,22.89-8.1,6.85-15.18,14.58-20.09,24-4.11,7.88-6.74,16.37-7.49,25.26-1.31,15.61,1.73,30.36,10.09,43.74,9.05,14.5,21.36,25.19,37.98,29.99,11.03,3.19,22.17,2.54,33.07-1.26.42-.15.88-.19,2.38-.5Z"/>
  <path d="M139.66,172.37c-6.9-5.56-13.03-12.25-16.67-20.73-9.53-22.25-7.21-43.57,6.33-63.47,6.92-10.17,16.71-17.08,27.84-22.27,17.26-8.04,35.21-11.89,54.25-9.61,15.07,1.8,28.98,7.04,42.16,14.46,13.32,7.5,24.88,17.08,34.5,28.93,9.37,11.56,16.35,24.46,20.77,38.68,6.52,20.99,9,42.53,7.02,64.38-1.5,16.61-5.76,32.65-12.48,48.01-6.14,14.05-14.24,26.83-24.16,38.46-4.77,5.6-10.91,8.05-18.32,6.83-8.27-1.36-13.37-6.59-15.48-14.24-1.85-6.73-.03-13.12,4.74-18.45,11.24-12.55,19.65-26.83,24.87-42.77,6.41-19.59,9.73-39.63,5.73-60.26-3.79-19.59-13.15-36.24-27.58-49.91-10.91-10.34-23.52-17.86-38.71-19.78-26.71-3.38-48.55,5.55-64.76,27.16-8.41,11.21-13.26,23.92-12.62,38.15.25,5.45,1.66,10.85,2.57,16.44Z"/>
</svg>